<svg xmlns="http://www.w3.org/2000/svg" viewBox="0 0 64 64"><defs><style>.cls-1{fill:#22c55e;}.cls-2{fill:#fff;}.cls-3{fill:#86efac;}</style></defs><rect class="cls-1" width="64" height="64" rx="8"/><path class="cls-2" d="M16,50.44V14.11h7.71V29.67l-1.57.59a7.8,7.8,0,0,1,1.94-3.21,10.66,10.66,0,0,1,3.36-2.34,10,10,0,0,1,4.13-.88,9.57,9.57,0,0,1,5,1.2,7.51,7.51,0,0,1,3,3.59,14.54,14.54,0,0,1,1,5.82v16h-7.9V35.07a6.55,6.55,0,0,0-.45-2.6,3.12,3.12,0,0,0-1.35-1.55,4.19,4.19,0,0,0-2.23-.46,5.45,5.45,0,0,0-1.92.32,4.3,4.3,0,0,0-1.52.93,4.73,4.73,0,0,0-1,1.4,3.94,3.94,0,0,0-.37,1.72V50.44H16Z"/><path class="cls-3" d="M49.43,50.23A4.36,4.36,0,0,1,46.16,49,4.64,4.64,0,0,1,45,45.65a4.61,4.61,0,0,1,1.24-3.35A4.2,4.2,0,0,1,49.43,41a4.43,4.43,0,0,1,3.29,1.21,4.7,4.7,0,0,1,1.19,3.43,4.57,4.57,0,0,1-1.24,3.29A4.27,4.27,0,0,1,49.43,50.23Z"/></svg>