<svg width="600" height="600" viewBox="0 0 600 600" fill="none" xmlns="http://www.w3.org/2000/svg">
<rect x="600" y="600" width="600" height="600" rx="100" transform="rotate(180 600 600)" fill="#22C55E"/>
<path d="M290 274C290 270.686 292.686 268 296 268H342C364.091 268 382 285.909 382 308V473C382 476.314 379.314 479 376 479H330C307.909 479 290 461.091 290 439V274Z" fill="white"/>
<path d="M124 129C124 125.686 126.686 123 130 123H176C198.091 123 216 140.909 216 163V473C216 476.314 213.314 479 210 479H164C141.909 479 124 461.091 124 439V129Z" fill="white"/>
<path d="M124 274C124 270.686 126.686 268 130 268H342C364.091 268 382 285.909 382 308V360C382 363.314 379.314 366 376 366H130C126.686 366 124 363.314 124 360V274Z" fill="white"/>
<path d="M400 405C400 401.686 402.686 399 406 399H440C462.091 399 480 416.909 480 439V473C480 476.314 477.314 479 474 479H406C402.686 479 400 476.314 400 473V405Z" fill="#86EFAC"/>
</svg>
